<?xml version="1.0" standalone="no"?>
<!DOCTYPE svg PUBLIC "-//W3C//DTD SVG 20010904//EN"
 "http://www.w3.org/TR/2001/REC-SVG-20010904/DTD/svg10.dtd">
<svg version="1.0" xmlns="http://www.w3.org/2000/svg"
 width="512.000000pt" height="512.000000pt" viewBox="0 0 512.000000 512.000000"
 preserveAspectRatio="xMidYMid meet">
<metadata>
Created by potrace 1.11, written by Peter Selinger 2001-2013
</metadata>
<g transform="translate(0.000000,512.000000) scale(0.100000,-0.100000)"
fill="#000000" stroke="none">
<path d="M3092 4468 c-7 -7 -12 -18 -12 -26 0 -7 -10 -32 -23 -55 -13 -23 -33
-67 -46 -97 -13 -30 -37 -82 -53 -115 -17 -33 -36 -76 -43 -95 l-14 -35 0 42
c-1 58 -41 101 -135 147 -41 20 -78 36 -82 36 -14 0 -43 42 -37 56 13 36 104
6 125 -41 10 -24 22 -31 57 -38 24 -5 55 -6 68 -2 24 6 25 9 19 48 -17 105
-107 167 -244 167 -71 0 -108 -15 -146 -60 -21 -26 -26 -42 -26 -89 0 -49 4
-61 29 -86 39 -42 70 -63 108 -77 18 -7 33 -16 33 -20 0 -4 8 -8 18 -8 9 0 28
-9 42 -20 21 -16 23 -22 14 -37 -25 -39 -144 -9 -144 36 0 10 -6 23 -12 29
-17 13 -138 27 -138 15 0 -5 -16 -7 -35 -5 -51 6 -126 -18 -135 -44 -5 -12
-16 -24 -25 -28 -22 -8 -77 -7 -91 2 -12 8 -44 54 -44 63 0 4 24 9 53 13 53 6
176 25 212 31 11 2 29 10 39 18 19 14 19 16 -5 88 -19 60 -34 84 -75 126 -42
42 -59 53 -97 58 -101 15 -210 -34 -257 -116 -22 -38 -25 -56 -25 -136 0 -68
-3 -87 -10 -73 -17 31 -77 70 -108 70 -24 0 -28 3 -22 18 35 80 -20 180 -123
221 -28 12 -40 12 -75 0 -23 -7 -44 -16 -47 -19 -3 -3 -21 -13 -40 -22 -48
-24 -126 -70 -223 -131 -45 -29 -58 -49 -38 -61 5 -3 24 -34 41 -68 45 -85 76
-142 155 -283 110 -193 117 -205 120 -205 6 0 90 45 100 53 8 7 110 69 187
113 58 34 102 98 113 163 l7 44 22 -27 c49 -60 84 -76 170 -76 60 0 90 5 120
20 44 22 116 104 116 132 0 31 16 19 30 -21 31 -95 132 -147 275 -139 89 5
106 12 137 63 l18 30 0 -41 c0 -100 103 -195 213 -196 71 -1 105 15 144 66 37
49 88 168 80 189 -8 22 -96 62 -109 49 -6 -6 -27 -44 -47 -84 -30 -61 -41 -74
-63 -76 -41 -5 -68 14 -68 47 0 26 85 221 96 221 2 0 12 -4 22 -10 45 -25 188
-90 199 -90 16 0 54 77 47 95 -3 8 -22 19 -42 26 -21 7 -39 15 -42 18 -9 11
-115 61 -129 61 -9 0 -11 8 -6 27 3 15 10 30 13 33 14 10 30 57 23 68 -5 9
-102 62 -113 62 -2 0 -9 -5 -16 -12z m-847 -158 c25 -26 27 -32 15 -40 -8 -5
-24 -10 -36 -10 -12 0 -43 -3 -69 -7 -46 -6 -47 -6 -40 18 9 32 51 69 79 69
12 0 35 -14 51 -30z m-571 -26 c9 -8 16 -28 16 -44 0 -25 -10 -36 -76 -80 -42
-27 -82 -50 -89 -50 -6 0 -22 21 -35 47 -22 45 -23 46 -4 60 10 8 38 24 62 35
23 11 42 24 42 28 0 9 22 17 52 19 9 0 24 -6 32 -15z m131 -210 c49 -32 42
-117 -11 -144 -16 -8 -53 -29 -82 -47 -57 -36 -62 -38 -62 -23 0 6 -11 27 -24
48 -45 72 -45 76 31 119 37 21 77 43 88 50 28 15 32 15 60 -3z"/>
<path d="M3754 3988 c-77 -60 -95 -85 -109 -148 -8 -36 15 -113 55 -185 16
-27 38 -67 49 -88 29 -52 27 -92 -4 -113 -37 -24 -79 -10 -123 42 -44 53 -55
93 -36 130 20 38 18 43 -31 99 l-43 50 -22 -20 c-64 -58 -80 -156 -40 -240 78
-160 208 -248 321 -218 21 6 39 9 39 7 0 -2 -12 -25 -26 -51 -62 -116 8 -295
139 -351 35 -15 114 -16 123 -1 3 6 -6 38 -21 70 -23 46 -35 61 -61 69 -46 16
-69 45 -69 91 0 27 7 46 22 61 22 21 22 21 29 2 4 -10 15 -31 25 -45 10 -14
39 -67 64 -118 25 -51 52 -94 60 -98 33 -12 155 101 175 162 26 79 -1 181 -64
246 -88 90 -155 101 -268 46 -37 -18 -61 -26 -54 -17 7 8 21 35 30 59 15 39
15 48 2 95 -17 59 -55 141 -91 201 -33 54 -34 111 -1 126 34 16 87 -12 114
-60 23 -41 29 -95 12 -106 -21 -13 -8 -42 38 -88 l48 -47 20 22 c33 37 58 100
58 144 -2 90 -111 242 -201 280 -51 22 -125 18 -159 -8z m374 -747 c21 -26 25
-59 12 -91 -14 -35 -31 -38 -45 -11 -6 11 -21 40 -35 66 -20 39 -22 48 -10 55
19 12 62 2 78 -19z"/>
<path d="M1034 3738 c-29 -32 -54 -75 -54 -91 0 -11 43 -40 171 -115 67 -40
109 -86 109 -119 0 -36 -34 -83 -59 -83 -21 0 -107 46 -135 72 -11 10 -25 18
-30 18 -10 0 -86 47 -113 70 -21 17 -30 11 -62 -40 -36 -58 -39 -86 -11 -95
11 -3 20 -11 20 -16 0 -5 5 -9 11 -9 6 0 34 -15 62 -33 113 -73 185 -115 203
-120 10 -2 -3 -2 -31 1 -27 2 -56 8 -65 13 -8 4 -62 18 -120 29 -58 12 -123
26 -145 31 -93 22 -176 32 -185 23 -9 -9 -40 -152 -40 -184 0 -16 52 -47 248
-145 l124 -62 -79 -7 c-43 -3 -135 -9 -206 -13 -75 -3 -131 -11 -137 -17 -13
-17 -49 -182 -41 -194 3 -5 29 -15 56 -21 59 -15 259 -60 295 -67 14 -3 34 -9
45 -14 11 -5 34 -11 50 -14 17 -3 64 -12 105 -20 89 -17 94 -14 103 66 7 58
-1 73 -41 81 -15 3 -45 10 -67 15 -22 6 -67 15 -100 21 -112 21 -114 25 -20
32 50 4 127 7 171 8 52 1 85 5 91 14 9 11 36 138 30 143 -8 6 -169 94 -197
108 -19 9 -46 26 -60 37 l-25 20 50 -7 c28 -4 55 -10 60 -14 6 -4 24 -10 40
-13 17 -3 54 -11 84 -17 29 -6 59 -9 66 -7 7 3 15 25 19 49 4 23 9 53 12 65 4
16 -1 25 -23 36 l-28 15 30 8 c17 4 40 14 53 22 33 21 35 11 7 -31 -14 -20
-25 -40 -25 -45 0 -16 35 -40 78 -53 60 -18 112 0 169 58 112 115 117 247 15
348 -26 25 -64 53 -84 62 -21 9 -38 20 -38 23 0 4 -18 15 -40 25 -22 10 -40
21 -40 25 0 3 -15 13 -33 22 -18 8 -72 41 -120 72 -48 31 -91 56 -95 56 -5 0
-17 -10 -28 -22z m377 -379 c58 -41 26 -139 -45 -139 -37 0 -64 14 -47 24 18
12 51 83 51 111 0 30 4 31 41 4z"/>
<path d="M1708 3379 c-16 -11 -28 -29 -28 -39 0 -10 -4 -22 -10 -25 -19 -12
-10 -51 19 -79 32 -30 38 -52 50 -168 7 -60 14 -85 35 -112 14 -19 31 -56 37
-83 27 -114 45 -165 99 -278 16 -33 37 -87 48 -120 19 -55 19 -65 7 -113 -22
-82 -35 -195 -35 -293 0 -49 -3 -89 -8 -89 -9 0 -30 -46 -38 -88 -4 -18 -11
-35 -15 -38 -5 -3 -9 -17 -9 -32 -1 -15 -7 -44 -15 -66 -16 -47 -11 -66 20
-66 13 0 27 -4 30 -10 3 -5 22 -10 42 -10 35 0 35 0 29 -35 -9 -44 -23 -71
-68 -126 -38 -46 -52 -87 -69 -198 -11 -71 -26 -106 -58 -135 -12 -11 -21 -25
-21 -31 0 -7 -7 -18 -15 -25 -12 -10 -14 -34 -9 -144 3 -72 10 -153 15 -181
19 -99 76 -185 123 -185 8 0 34 19 57 41 38 36 86 72 139 104 30 18 110 115
125 152 9 21 25 46 36 56 20 18 21 18 80 -42 33 -34 100 -91 149 -126 48 -36
101 -80 117 -98 16 -18 43 -39 59 -46 29 -11 38 -9 108 23 43 20 81 36 86 36
4 0 24 18 43 39 55 61 58 145 17 491 -16 135 -13 236 8 267 12 19 18 50 19
103 1 41 4 100 5 130 l3 55 -51 3 c-27 2 -61 -2 -75 -8 -38 -16 -92 -50 -116
-73 -23 -20 -23 -20 -23 0 0 30 39 226 49 243 4 8 20 67 35 130 15 63 34 130
42 148 8 18 14 41 14 51 0 21 20 39 70 65 26 13 49 41 85 102 27 46 52 84 56
84 4 0 17 11 30 25 13 13 29 25 34 25 16 0 60 62 74 105 8 24 28 52 50 69 54
44 82 82 94 128 6 24 28 60 55 90 25 27 54 62 63 78 22 35 48 50 88 50 21 0
35 7 45 23 52 84 5 148 -106 146 -41 -1 -51 -6 -72 -34 -14 -18 -37 -58 -52
-89 -22 -46 -43 -69 -116 -127 -48 -38 -102 -89 -118 -112 -44 -62 -64 -81
-107 -102 -21 -11 -40 -22 -43 -25 -3 -3 -14 -10 -25 -16 -19 -10 -20 -9 -17
37 2 26 -1 63 -7 82 -9 28 -19 36 -54 47 -63 20 -125 31 -193 37 -60 5 -60 4
-97 -36 -20 -22 -54 -52 -75 -66 -52 -34 -67 -66 -65 -133 2 -49 -17 -112 -33
-112 -15 0 -113 36 -142 52 -18 10 -39 18 -46 18 -27 0 -49 38 -43 75 8 50 2
61 -49 85 -24 12 -44 26 -44 31 0 4 -15 24 -34 42 -25 25 -39 52 -50 98 -10
40 -25 72 -40 85 -42 37 -48 60 -42 147 6 78 5 84 -18 110 -32 34 -96 37 -138
6z m962 -1887 c0 -13 10 -37 21 -54 25 -34 37 -112 20 -122 -17 -11 -48 68
-66 168 -8 49 -15 94 -14 100 1 20 38 -68 39 -92z"/>
<path d="M4500 3053 c-8 -3 -37 -16 -65 -28 -27 -13 -68 -29 -90 -36 -22 -7
-44 -16 -50 -20 -5 -3 -35 -14 -65 -24 -30 -10 -59 -21 -65 -25 -5 -4 -34 -15
-64 -25 -29 -9 -65 -24 -80 -31 -14 -8 -31 -14 -37 -14 -26 0 -64 -27 -64 -45
0 -24 31 -108 43 -116 12 -8 47 1 109 30 26 11 52 21 57 21 6 0 35 11 65 25
30 14 60 25 65 25 6 0 19 4 29 9 34 18 90 41 101 41 6 0 35 11 65 25 30 14 61
25 69 25 8 0 25 8 37 18 l23 19 -18 54 c-27 78 -33 84 -65 72z"/>
<path d="M4372 2809 c-38 -11 -50 -32 -32 -54 7 -9 11 -17 9 -18 -17 -12 -60
-27 -89 -32 -19 -4 -60 -15 -90 -25 -30 -11 -78 -24 -107 -30 -71 -15 -78 -27
-64 -97 6 -32 15 -61 19 -65 5 -5 26 -4 48 1 69 18 209 58 224 63 30 12 83 28
91 28 5 0 9 -11 9 -24 0 -37 23 -50 73 -40 42 9 42 10 41 52 -1 51 19 56 44
12 15 -26 21 -29 47 -24 17 4 43 13 58 21 22 11 27 19 21 36 -17 57 -60 114
-104 137 -10 5 -39 10 -64 10 -39 0 -47 4 -58 27 -15 31 -29 35 -76 22z"/>
</g>
</svg>
